<svg xmlns="http://www.w3.org/2000/svg" width="512" height="512" viewBox="0 0 512 512">
  <defs>
    <radialGradient id="bg" cx="50%" cy="35%" r="70%">
      <stop offset="0" stop-color="#3b4252"/>
      <stop offset="1" stop-color="#2e3440"/>
    </radialGradient>
    <linearGradient id="glow" x1="0" y1="0" x2="1" y2="1">
      <stop offset="0" stop-color="#88c0d0"/>
      <stop offset="1" stop-color="#a3be8c"/>
    </linearGradient>
    <filter id="soft" x="-20%" y="-20%" width="140%" height="140%">
      <feGaussianBlur stdDeviation="6"/>
    </filter>
  </defs>
  <rect width="512" height="512" rx="112" fill="url(#bg)"/>
  <circle cx="256" cy="250" r="170" fill="none" stroke="rgba(236,239,244,0.18)" stroke-width="10"/>
  <path d="M120 265c26-44 64-72 114-72 46 0 78 24 92 56 18-30 42-48 74-48 34 0 66 18 90 56" fill="none" stroke="rgba(236,239,244,0.22)" stroke-width="10" stroke-linecap="round"/>
  <path d="M92 298c34-62 82-104 144-104 56 0 96 30 114 74 22-42 56-68 104-68 48 0 88 28 120 86" fill="none" stroke="url(#glow)" stroke-width="16" stroke-linecap="round"/>
  <path d="M96 340c36-34 82-54 136-54 54 0 96 18 132 56 26-34 64-54 112-54 34 0 64 10 88 28" fill="none" stroke="url(#glow)" stroke-width="16" stroke-linecap="round" filter="url(#soft)" opacity="0.7"/>
</svg>

